<svg width="1024" height="1024" viewBox="0 0 680 680" xmlns="http://www.w3.org/2000/svg">
  <defs>
    <linearGradient id="bg" x1="0" y1="0" x2="1" y2="1">
      <stop offset="0%" stop-color="#1a1a2e"/>
      <stop offset="60%" stop-color="#16213e"/>
      <stop offset="100%" stop-color="#0f3460"/>
    </linearGradient>
    <linearGradient id="rb" x1="0" y1="0" x2="1" y2="0">
      <stop offset="0%" stop-color="#2a2a3e"/>
      <stop offset="100%" stop-color="#3a3a52"/>
    </linearGradient>
    <linearGradient id="sh" x1="0" y1="0" x2="0" y2="1">
      <stop offset="0%" stop-color="#ffffff" stop-opacity="0.12"/>
      <stop offset="100%" stop-color="#ffffff" stop-opacity="0"/>
    </linearGradient>
    <clipPath id="rr">
      <rect x="90" y="90" width="500" height="500" rx="112" ry="112"/>
    </clipPath>
  </defs>

  <rect x="90" y="90" width="500" height="500" rx="112" ry="112" fill="url(#bg)"/>
  <ellipse cx="340" cy="330" rx="120" ry="150" fill="#eab308" opacity="0.08"/>

  <path d="M208 200 Q168 255 168 310 Q168 365 208 420" fill="none" stroke="#eab308" stroke-width="8" stroke-linecap="round" opacity="0.85"/>
  <path d="M238 225 Q206 268 206 310 Q206 352 238 395" fill="none" stroke="#facc15" stroke-width="6" stroke-linecap="round" opacity="0.6"/>
  <path d="M472 200 Q512 255 512 310 Q512 365 472 420" fill="none" stroke="#eab308" stroke-width="8" stroke-linecap="round" opacity="0.85"/>
  <path d="M442 225 Q474 268 474 310 Q474 352 442 395" fill="none" stroke="#facc15" stroke-width="6" stroke-linecap="round" opacity="0.6"/>

  <rect x="260" y="190" width="160" height="300" rx="20" fill="url(#rb)" stroke="#facc15" stroke-width="2.5"/>
  <rect x="358" y="112" width="11" height="94" rx="5" fill="#facc15"/>
  <circle cx="363" cy="108" r="8" fill="#fde047"/>
  <rect x="292" y="183" width="56" height="14" rx="7" fill="#facc15"/>

  <rect x="280" y="206" width="120" height="52" rx="8" fill="#111827"/>
  <line x1="292" y1="219" x2="388" y2="219" stroke="#374151" stroke-width="2.5" stroke-linecap="round"/>
  <line x1="292" y1="230" x2="388" y2="230" stroke="#374151" stroke-width="2.5" stroke-linecap="round"/>
  <line x1="292" y1="241" x2="388" y2="241" stroke="#374151" stroke-width="2.5" stroke-linecap="round"/>
  <line x1="292" y1="252" x2="388" y2="252" stroke="#374151" stroke-width="2.5" stroke-linecap="round"/>

  <rect x="274" y="270" width="132" height="72" rx="7" fill="#0a0f1a" stroke="#facc15" stroke-width="2"/>
  <text x="340" y="302" text-anchor="middle" font-family="monospace,system-ui" font-size="22" font-weight="700" fill="#facc15" letter-spacing="2">144.700</text>
  <text x="340" y="322" text-anchor="middle" font-family="monospace,system-ui" font-size="13" font-weight="400" fill="#fde047" opacity="0.8" letter-spacing="3">MHz</text>

  <rect x="282" y="326" width="5" height="7" rx="1" fill="#facc15"/>
  <rect x="290" y="321" width="5" height="12" rx="1" fill="#facc15"/>
  <rect x="298" y="316" width="5" height="17" rx="1" fill="#facc15"/>
  <rect x="306" y="313" width="5" height="20" rx="1" fill="#facc15" opacity="0.3"/>

  <rect x="248" y="305" width="14" height="46" rx="5" fill="#facc15"/>

  <circle cx="298" cy="368" r="11" fill="#1e293b" stroke="#facc15" stroke-width="1.5"/>
  <circle cx="340" cy="368" r="11" fill="#facc15"/>
  <circle cx="382" cy="368" r="11" fill="#1e293b" stroke="#facc15" stroke-width="1.5"/>

  <rect x="280" y="396" width="120" height="46" rx="7" fill="#111827"/>
  <circle cx="308" cy="412" r="3.5" fill="#374151"/>
  <circle cx="325" cy="412" r="3.5" fill="#374151"/>
  <circle cx="342" cy="412" r="3.5" fill="#374151"/>
  <circle cx="359" cy="412" r="3.5" fill="#374151"/>
  <circle cx="316" cy="426" r="3.5" fill="#374151"/>
  <circle cx="333" cy="426" r="3.5" fill="#374151"/>
  <circle cx="350" cy="426" r="3.5" fill="#374151"/>

  <rect x="418" y="255" width="9" height="90" rx="4" fill="#374151" stroke="#4b5563" stroke-width="1"/>

  <rect x="90" y="90" width="500" height="260" rx="112" ry="112" fill="url(#sh)" clip-path="url(#rr)"/>

  <circle cx="150" cy="145" r="2" fill="#ffffff" opacity="0.45"/>
  <circle cx="510" cy="160" r="1.5" fill="#ffffff" opacity="0.4"/>
  <circle cx="480" cy="128" r="2" fill="#ffffff" opacity="0.3"/>
  <circle cx="165" cy="480" r="1.5" fill="#ffffff" opacity="0.3"/>
  <circle cx="520" cy="470" r="2" fill="#ffffff" opacity="0.3"/>

  <text x="340" y="556" text-anchor="middle" font-family="system-ui,-apple-system,sans-serif" font-size="44" font-weight="700" fill="#facc15" letter-spacing="6">ERAC</text>
  <text x="340" y="574" text-anchor="middle" font-family="system-ui,-apple-system,sans-serif" font-size="13" font-weight="400" fill="#fde047" opacity="0.75" letter-spacing="1">Egat Radio Amateur Club</text>

  <rect x="90" y="90" width="500" height="500" rx="112" ry="112" fill="none" stroke="#ffffff" stroke-width="1.5" opacity="0.08"/>
</svg>
